<?xml version="1.0" encoding="utf-8"?>
<!-- Generator: Adobe Illustrator 16.0.0, SVG Export Plug-In . SVG Version: 6.00 Build 0)  -->
<!DOCTYPE svg PUBLIC "-//W3C//DTD SVG 1.1//EN" "http://www.w3.org/Graphics/SVG/1.1/DTD/svg11.dtd">
<svg version="1.1" id="Layer_1" xmlns="http://www.w3.org/2000/svg" xmlns:xlink="http://www.w3.org/1999/xlink" x="0px" y="0px"
	 width="500px" height="500px" viewBox="70 -10 500 500" enable-background="new 70 -10 500 500" xml:space="preserve">
<path fill="#AFD5FF" d="M304.749,137.875h80.89c44.136,0,57.902,15.061,110.14,60.554c7.626,6.637,14.318,13.905,21.092,20.224
	c36.908,34.43,42.332,35.696,43.044,68.2c0.155,7.356,0.061,23.575,0.018,34.009c-0.027,5.93-0.064,12.729-0.064,21.563
	c0,11.499-10.382,20.993-23.428,21.802l-136.229,0.056h-78.119l-87.11-0.048c-9.768-0.558-18.067-5.989-21.656-13.488
	c-1.228-2.565-1.91-5.379-1.91-8.319V172.196c0-19.335,15.155-34.965,33.751-34.811L304.749,137.875z"/>
<path fill="#95B8C2" d="M211.415,208.696v-36.5c0-19.335,15.155-34.965,33.751-34.812l59.583,0.491h80.89
	c44.136,0,57.902,15.061,110.14,60.554c3.827,3.33,7.418,6.819,10.901,10.267H211.415L211.415,208.696z"/>
<path fill="#5B7F99" d="M252.015,230.604h-40.6v-58.409c0-19.335,15.155-34.965,33.751-34.812l46.34,0.382L252.015,230.604z"/>
<path fill="#E69724" d="M559.915,286.854c0.155,7.356,0.061,23.575,0.018,34.009c-0.028,5.93-0.065,12.729-0.065,21.563
	c0,11.499-10.382,20.993-23.428,21.802l-136.229,0.056h-78.119l-87.11-0.049c-9.768-0.558-18.067-5.989-21.656-13.488
	c-1.228-2.565-1.91-5.379-1.91-8.319v-170.23c0-19.335,15.155-34.965,33.751-34.812l13.197,0.109
	c30.268,44.053,97.872,126.198,109.066,126.198h158.919h27.753h2.982C559.014,269.688,559.693,276.764,559.915,286.854z"/>
<g>
	<path fill="#DA6D18" d="M252.015,230.604h-40.6v-58.409c0-19.335,15.155-34.965,33.751-34.812l13.197,0.109
		c5.832,8.489,13.054,18.394,20.988,28.85L252.015,230.604z"/>
	<path fill="#DA6D18" d="M559.909,325.644c-0.021,4.791-0.043,10.226-0.043,16.782c0,11.499-10.382,20.993-23.429,21.802
		l-136.229,0.056h-78.119l-87.11-0.049c-9.768-0.558-18.067-5.989-21.656-13.488c-1.228-2.565-1.91-5.379-1.91-8.319v-16.782
		L559.909,325.644L559.909,325.644z"/>
</g>
<path fill="#893912" d="M293.577,263.688c0,5.769-4.497,10.443-10.045,10.443h-13.179c-5.548,0-10.045-4.676-10.045-10.443
	s4.497-10.443,10.045-10.443h13.179C289.08,253.245,293.577,257.922,293.577,263.688z"/>
<path fill="#234556" d="M322.09,364.284c0,25.006-19.501,45.28-43.555,45.28c-24.056,0-43.558-20.274-43.558-45.28
	c0-25.01,19.501-45.28,43.558-45.28C302.589,319.004,322.09,339.274,322.09,364.284z M492.882,319.004
	c-24.057,0-43.559,20.271-43.559,45.28c0,25.006,19.501,45.28,43.559,45.28c24.057,0,43.558-20.274,43.558-45.28
	C536.439,339.274,516.938,319.004,492.882,319.004z"/>
<path fill="#95B8C2" d="M288.594,364.284c0,5.769-4.497,10.444-10.045,10.444c-5.548,0-10.06-4.677-10.06-10.444
	c0-5.769,4.483-10.443,10.031-10.443h0.03C284.096,353.841,288.594,358.516,288.594,364.284z M492.896,353.841h-0.03
	c-5.548,0-10.031,4.676-10.031,10.443c0,5.769,4.514,10.444,10.062,10.444s10.045-4.677,10.045-10.444
	C502.942,358.516,498.445,353.841,492.896,353.841z"/>
<path fill="#EDB92B" d="M101.5,99.476h203.531l-53.323,125.355H101.5V99.476L101.5,99.476z"/>
<path fill="#3A3A3A" d="M203.825,143.557c0,5.769-4.498,10.444-10.045,10.444c-5.548,0-10.068-4.676-10.068-10.444
	c0-5.769,4.477-10.444,10.025-10.444h0.043C199.327,133.113,203.825,137.789,203.825,143.557z M146.147,133.113h-0.043
	c-5.548,0-10.023,4.676-10.023,10.444c0,5.769,4.52,10.444,10.067,10.444c5.548,0,10.045-4.676,10.045-10.444
	C156.192,137.789,151.695,133.113,146.147,133.113z M241.414,133.113h-0.045c-5.548,0-10.023,4.676-10.023,10.444
	c0,5.769,4.521,10.444,10.069,10.444s10.045-4.676,10.045-10.444C251.459,137.789,246.962,133.113,241.414,133.113z
	 M217.595,170.307h-0.043c-5.548,0-10.024,4.676-10.024,10.444s4.52,10.444,10.068,10.444c5.548,0,10.045-4.676,10.045-10.444
	S223.143,170.307,217.595,170.307z M169.965,170.307h-0.045c-5.548,0-10.024,4.676-10.024,10.444s4.521,10.444,10.069,10.444
	s10.045-4.676,10.045-10.444S175.514,170.307,169.965,170.307z"/>
<path fill="#95B8C2" d="M156.608,302.781H96.945c-5.548,0-10.045-4.677-10.045-10.444c0-5.769,4.497-10.444,10.045-10.444h59.663
	c5.548,0,10.045,4.677,10.045,10.444C166.653,298.105,162.156,302.781,156.608,302.781z M156.608,325.644h-26.68
	c-5.548,0-10.045,4.676-10.045,10.443c0,5.769,4.497,10.444,10.045,10.444h26.68c5.548,0,10.045-4.677,10.045-10.444
	S162.156,325.644,156.608,325.644z"/>
<polygon fill="#EDB92B" points="102,123.5 75.5,123.5 75.5,168.5 101.5,168.5 101.5,162.154 81,162.154 81,130 102,130 "/>
</svg>
