<?xml version="1.0" encoding="utf-8"?>
<!-- Generator: Adobe Illustrator 16.0.0, SVG Export Plug-In . SVG Version: 6.00 Build 0)  -->
<!DOCTYPE svg PUBLIC "-//W3C//DTD SVG 1.1//EN" "http://www.w3.org/Graphics/SVG/1.1/DTD/svg11.dtd">
<svg version="1.1" id="Layer_1" xmlns="http://www.w3.org/2000/svg" xmlns:xlink="http://www.w3.org/1999/xlink" x="0px" y="0px"
	 width="500px" height="500px" viewBox="0 0 500 500" enable-background="new 0 0 500 500" xml:space="preserve">
<line fill="#FFFFFF" stroke="#686663" stroke-width="4" stroke-miterlimit="10" x1="82.021" y1="248" x2="141.831" y2="248"/>
<path fill="#AFD5FF" d="M238.459,147.043h80.89c44.137,0,57.902,15.061,110.141,60.554c7.626,6.637,14.317,13.905,21.092,20.224
	c36.908,34.43,42.332,35.697,43.044,68.201c0.155,7.355,0.061,23.574,0.018,34.009c-0.026,5.93-0.063,12.729-0.063,21.563
	c0,11.499-10.382,20.993-23.428,21.802l-136.229,0.057h-78.119l-87.11-0.048c-9.768-0.559-18.067-5.989-21.656-13.488
	c-1.228-2.565-1.91-5.379-1.91-8.319V181.364c0-19.335,15.155-34.965,33.751-34.811L238.459,147.043z"/>
<path fill="#95B8C2" d="M145.125,217.864v-36.5c0-19.335,15.155-34.965,33.751-34.812l59.583,0.491h80.89
	c44.137,0,57.902,15.061,110.141,60.554c3.827,3.33,7.418,6.819,10.9,10.267H145.125L145.125,217.864z"/>
<path fill="#5B7F99" d="M185.726,239.772h-40.601v-58.409c0-19.335,15.155-34.965,33.751-34.812l46.34,0.382L185.726,239.772z"/>
<path fill="#E69724" d="M494.755,295.386c0.183,7.355,0.147,23.574,0.142,34.009c-0.005,5.93-0.018,12.729,0.015,21.563
	c0.042,11.499-10.305,21.031-23.348,21.888l-136.229,0.554l-78.119,0.285l-87.109,0.27c-9.77-0.523-18.089-5.924-21.705-13.409
	c-1.237-2.562-1.93-5.372-1.94-8.313l-0.621-170.229c-0.071-19.335,15.027-35.021,33.624-34.936l13.197,0.061
	c30.429,43.942,98.333,125.84,109.526,125.799l158.918-0.58l27.753-0.101l2.982-0.012
	C493.791,278.223,494.497,285.297,494.755,295.386z"/>
<g>
	<path fill="#DA6D18" d="M185.726,239.772h-40.601v-58.409c0-19.335,15.155-34.965,33.751-34.812l13.197,0.109
		c5.832,8.489,13.054,18.394,20.988,28.85L185.726,239.772z"/>
	<path fill="#DA6D18" d="M493.619,334.812c-0.021,4.791-0.043,10.227-0.043,16.782c0,11.499-10.382,20.993-23.43,21.803
		l-136.229,0.056h-78.119l-87.11-0.049c-9.768-0.559-18.067-5.989-21.656-13.488c-1.228-2.565-1.91-5.379-1.91-8.319v-16.781
		L493.619,334.812L493.619,334.812z"/>
</g>
<path fill="#893912" d="M227.287,272.855c0,5.77-4.497,10.443-10.045,10.443h-13.179c-5.549,0-10.045-4.676-10.045-10.443
	c0-5.767,4.496-10.442,10.045-10.442h13.179C222.79,262.413,227.287,267.09,227.287,272.855z"/>
<path fill="#234556" d="M255.8,373.452c0,25.006-19.501,45.28-43.555,45.28c-24.057,0-43.558-20.274-43.558-45.28
	c0-25.01,19.501-45.28,43.558-45.28C236.299,328.172,255.8,348.442,255.8,373.452z M426.592,328.172
	c-24.057,0-43.559,20.271-43.559,45.28c0,25.006,19.501,45.28,43.559,45.28s43.559-20.274,43.559-45.28
	C470.149,348.442,450.647,328.172,426.592,328.172z"/>
<path fill="#95B8C2" d="M222.304,373.452c0,5.769-4.496,10.443-10.045,10.443c-5.548,0-10.061-4.677-10.061-10.443
	c0-5.77,4.484-10.443,10.031-10.443h0.03C217.806,363.009,222.304,367.684,222.304,373.452z M426.606,363.009h-0.03
	c-5.548,0-10.031,4.676-10.031,10.443c0,5.769,4.514,10.443,10.063,10.443c5.548,0,10.045-4.677,10.045-10.443
	C436.652,367.684,432.155,363.009,426.606,363.009z"/>
<path fill="#EDB92B" d="M35.21,108.644h203.531l-53.323,125.355H35.21V108.644L35.21,108.644z"/>
<path fill="#3A3A3A" d="M137.535,152.725c0,5.769-4.498,10.444-10.045,10.444c-5.548,0-10.068-4.676-10.068-10.444
	c0-5.769,4.477-10.444,10.025-10.444h0.043C133.037,142.281,137.535,146.957,137.535,152.725z M79.857,142.281h-0.043
	c-5.548,0-10.023,4.676-10.023,10.444c0,5.769,4.52,10.444,10.067,10.444c5.548,0,10.045-4.676,10.045-10.444
	C89.902,146.957,85.405,142.281,79.857,142.281z M175.124,142.281h-0.045c-5.548,0-10.023,4.676-10.023,10.444
	c0,5.769,4.521,10.444,10.069,10.444s10.045-4.676,10.045-10.444C185.169,146.957,180.672,142.281,175.124,142.281z
	 M151.305,179.475h-0.043c-5.548,0-10.024,4.676-10.024,10.444s4.52,10.444,10.068,10.444c5.548,0,10.045-4.676,10.045-10.444
	S156.853,179.475,151.305,179.475z M103.675,179.475h-0.045c-5.548,0-10.024,4.676-10.024,10.444s4.521,10.444,10.069,10.444
	c5.548,0,10.045-4.676,10.045-10.444S109.224,179.475,103.675,179.475z"/>
<path fill="#95B8C2" d="M90.318,316.741H30.655c-5.548,0-10.045-4.678-10.045-10.444c0-5.769,4.497-10.444,10.045-10.444h59.663
	c5.548,0,10.045,4.678,10.045,10.444C100.363,312.065,95.866,316.741,90.318,316.741z M90.318,339.604h-26.68
	c-5.548,0-10.045,4.677-10.045,10.443c0,5.77,4.497,10.444,10.045,10.444h26.68c5.548,0,10.045-4.678,10.045-10.444
	S95.866,339.604,90.318,339.604z"/>
<polygon fill="#EDB92B" points="35.71,132.668 9.21,132.668 9.21,177.668 35.21,177.668 35.21,171.322 14.71,171.322 14.71,139.168 
	35.71,139.168 "/>
<linearGradient id="SVGID_1_" gradientUnits="userSpaceOnUse" x1="55.731" y1="247.2505" x2="82.021" y2="247.2505">
	<stop  offset="0" style="stop-color:#FFFFFF"/>
	<stop  offset="0" style="stop-color:#000000;stop-opacity:0"/>
</linearGradient>
<ellipse fill="url(#SVGID_1_)" stroke="#686663" stroke-width="8" stroke-miterlimit="10" cx="68.876" cy="247.25" rx="13.145" ry="13.006"/>
<linearGradient id="SVGID_2_" gradientUnits="userSpaceOnUse" x1="141.8306" y1="248" x2="168.1206" y2="248">
	<stop  offset="0" style="stop-color:#FFFFFF"/>
	<stop  offset="0" style="stop-color:#000000;stop-opacity:0"/>
</linearGradient>
<ellipse fill="url(#SVGID_2_)" stroke="#686663" stroke-width="8" stroke-miterlimit="10" cx="154.976" cy="248" rx="13.145" ry="13.006"/>
</svg>
