<?xml version="1.0" encoding="iso-8859-1"?>
<!-- Generator: Adobe Illustrator 19.0.0, SVG Export Plug-In . SVG Version: 6.00 Build 0)  -->
<svg version="1.1" id="Layer_1" xmlns="http://www.w3.org/2000/svg" xmlns:xlink="http://www.w3.org/1999/xlink" x="0px" y="0px"
	 viewBox="0 0 512 512" style="enable-background:new 0 0 512 512;" xml:space="preserve">
<path style="fill:#AFD5FF;" d="M239.732,147.067h86.283c47.078,0,61.762,16.065,117.482,64.591
	c8.134,7.079,15.273,14.832,22.498,21.572c39.369,36.725,45.154,38.076,45.913,72.747c0.166,7.847,0.065,25.147,0.019,36.276
	c-0.029,6.325-0.069,13.578-0.069,23.001c0,12.266-11.074,22.393-24.989,23.255l-145.312,0.06h-83.327l-92.917-0.051
	c-10.419-0.595-19.272-6.389-23.1-14.388c-1.31-2.736-2.037-5.737-2.037-8.874v-181.58c0-20.624,16.165-37.296,36.001-37.132
	L239.732,147.067z"/>
<path style="fill:#95B8C2;" d="M140.176,222.609v-38.933c0-20.624,16.165-37.296,36.001-37.132l63.555,0.523h86.283
	c47.078,0,61.762,16.065,117.482,64.591c4.082,3.552,7.912,7.273,11.628,10.951L140.176,222.609L140.176,222.609z"/>
<path style="fill:#5B7F99;" d="M183.483,245.978h-43.307v-62.303c0-20.624,16.165-37.296,36.001-37.132l49.429,0.407
	L183.483,245.978z"/>
<path style="fill:#E69724;" d="M511.909,305.977c0.166,7.847,0.065,25.147,0.019,36.276c-0.03,6.325-0.07,13.578-0.07,23.001
	c0,12.266-11.074,22.393-24.989,23.255l-145.312,0.06h-83.327l-92.917-0.052c-10.419-0.595-19.272-6.389-23.1-14.388
	c-1.31-2.736-2.037-5.737-2.037-8.874V183.676c0-20.624,16.165-37.296,36.001-37.132l14.077,0.116
	c32.286,46.99,104.397,134.611,116.338,134.611h169.513h29.603h3.182C510.948,287.666,511.673,295.215,511.909,305.977z"/>
<g>
	<path style="fill:#DA6D18;" d="M183.483,245.978h-43.307v-62.303c0-20.624,16.165-37.296,36.001-37.132l14.077,0.116
		c6.221,9.055,13.924,19.62,22.387,30.773L183.483,245.978z"/>
	<path style="fill:#DA6D18;" d="M511.903,347.353c-0.023,5.111-0.046,10.907-0.046,17.901c0,12.266-11.074,22.393-24.99,23.255
		l-145.312,0.06h-83.327l-92.917-0.052c-10.419-0.595-19.272-6.389-23.1-14.388c-1.31-2.736-2.037-5.737-2.037-8.874v-17.901
		H511.903z"/>
</g>
<path style="fill:#893912;" d="M227.815,281.267c0,6.153-4.797,11.14-10.715,11.14h-14.058c-5.918,0-10.715-4.988-10.715-11.14
	c0-6.153,4.797-11.14,10.715-11.14H217.1C223.018,270.128,227.815,275.116,227.815,281.267z"/>
<path style="fill:#234556;" d="M258.229,388.57c0,26.673-20.801,48.299-46.458,48.299c-25.66,0-46.462-21.626-46.462-48.299
	c0-26.677,20.801-48.299,46.462-48.299C237.428,340.271,258.229,361.893,258.229,388.57z M440.407,340.271
	c-25.66,0-46.462,21.622-46.462,48.299c0,26.673,20.801,48.299,46.462,48.299c25.661,0,46.462-21.626,46.462-48.299
	C486.869,361.893,466.067,340.271,440.407,340.271z"/>
<path style="fill:#95B8C2;" d="M222.5,388.57c0,6.153-4.797,11.14-10.715,11.14c-5.918,0-10.731-4.988-10.731-11.14
	c0-6.153,4.782-11.14,10.7-11.14h0.032C217.702,377.43,222.5,382.417,222.5,388.57z M440.423,377.43h-0.032
	c-5.918,0-10.7,4.988-10.7,11.14c0,6.153,4.814,11.14,10.732,11.14s10.715-4.988,10.715-11.14
	C451.139,382.417,446.342,377.43,440.423,377.43z"/>
<path style="fill:#EDB92B;" d="M0,75.131h217.1l-56.878,133.713H0V75.131L0,75.131z"/>
<path style="fill:#3A3A3A;" d="M106.167,122.151c0,6.153-4.797,11.14-10.715,11.14s-10.739-4.988-10.739-11.14
	c0-6.153,4.775-11.14,10.693-11.14h0.046C101.369,111.011,106.167,115.998,106.167,122.151z M44.644,111.011h-0.046
	c-5.918,0-10.692,4.988-10.692,11.14c0,6.153,4.821,11.14,10.739,11.14s10.715-4.988,10.715-11.14
	C55.359,115.998,50.562,111.011,44.644,111.011z M146.262,111.011h-0.048c-5.918,0-10.691,4.988-10.691,11.14
	c0,6.153,4.822,11.14,10.74,11.14c5.918,0,10.715-4.988,10.715-11.14C156.977,115.998,152.18,111.011,146.262,111.011z
	 M120.855,150.684h-0.046c-5.918,0-10.693,4.988-10.693,11.14s4.821,11.14,10.739,11.14s10.715-4.988,10.715-11.14
	S126.773,150.684,120.855,150.684z M70.05,150.684h-0.048c-5.918,0-10.692,4.988-10.692,11.14s4.822,11.14,10.74,11.14
	s10.715-4.988,10.715-11.14S75.969,150.684,70.05,150.684z"/>
<path style="fill:#95B8C2;" d="M81.715,322.966h-63.64c-5.918,0-10.715-4.988-10.715-11.14c0-6.153,4.797-11.14,10.715-11.14h63.64
	c5.918,0,10.715,4.988,10.715,11.14C92.43,317.979,87.633,322.966,81.715,322.966z M81.715,347.353H53.256
	c-5.918,0-10.715,4.988-10.715,11.14c0,6.153,4.797,11.14,10.715,11.14h28.459c5.918,0,10.715-4.988,10.715-11.14
	C92.43,352.341,87.633,347.353,81.715,347.353z"/>
<g>
</g>
<g>
</g>
<g>
</g>
<g>
</g>
<g>
</g>
<g>
</g>
<g>
</g>
<g>
</g>
<g>
</g>
<g>
</g>
<g>
</g>
<g>
</g>
<g>
</g>
<g>
</g>
<g>
</g>
</svg>
