<?xml version="1.0" encoding="iso-8859-1"?>
<!-- Generator: Adobe Illustrator 16.0.0, SVG Export Plug-In . SVG Version: 6.00 Build 0)  -->
<!DOCTYPE svg PUBLIC "-//W3C//DTD SVG 1.1//EN" "http://www.w3.org/Graphics/SVG/1.1/DTD/svg11.dtd">
<svg version="1.1" id="Capa_1" xmlns="http://www.w3.org/2000/svg" xmlns:xlink="http://www.w3.org/1999/xlink" x="0px" y="0px"
	 width="35.193px" height="35.193px" viewBox="0 0 35.193 35.193" style="enable-background:new 0 0 35.193 35.193;"
	 xml:space="preserve">
<g>
	<path d="M14.65,23.2c-0.43,0-0.674-0.244-0.674-0.823v-4.498c0-0.582,0.244-0.826,0.674-0.826c0.414,0,0.676,0.244,0.676,0.826
		v4.498C15.326,22.956,15.063,23.2,14.65,23.2z M31.972,33.904v1.289H3.222v-1.289l2.064-0.643l-1.678-2.064L5.286,6.573h6.729
		C12.856,2.692,14.994,0,17.563,0c2.568,0,4.707,2.692,5.549,6.573h6.926c0,0-0.225,7.834-0.129,10.442
		c0.125,3.426,1.16,13.667,1.16,13.667l-0.902,2.062L31.972,33.904z M14.392,6.572h6.348c-0.66-2.616-1.967-4.254-3.173-4.254
		C16.356,2.318,15.052,3.954,14.392,6.572z M12.827,12.932c0.996,0,1.805-0.809,1.805-1.807c0-0.564-0.26-1.068-0.668-1.4
		c-0.004,0.181-0.008,0.359-0.008,0.543c0,0.641-0.521,1.16-1.16,1.16c-0.643,0-1.162-0.521-1.162-1.16
		c0-0.168,0.002-0.334,0.008-0.5c-0.379,0.33-0.619,0.816-0.619,1.357C11.022,12.124,11.829,12.932,12.827,12.932z M14.65,24.381
		c1.293,0,1.986-0.75,1.986-2.099V17.97c0-1.348-0.693-2.098-1.986-2.098c-1.293,0-1.984,0.75-1.984,2.098v4.312
		C12.665,23.631,13.356,24.381,14.65,24.381z M15.868,29.083l5.17-13.116h-1.217l-5.175,13.116H15.868z M23.138,22.77
		c0-1.348-0.693-2.098-1.986-2.098c-1.291,0-1.986,0.75-1.986,2.098v4.311c0,1.35,0.695,2.1,1.986,2.1c1.293,0,1.986-0.75,1.986-2.1
		V22.77z M24.173,11.126c0-0.572-0.27-1.082-0.686-1.414c0.004,0.184,0.01,0.369,0.01,0.557c0,0.641-0.521,1.16-1.162,1.16
		s-1.16-0.521-1.16-1.16c0-0.164-0.004-0.327-0.008-0.484c-0.369,0.329-0.604,0.809-0.604,1.344c0,0.998,0.808,1.807,1.806,1.807
		C23.364,12.932,24.173,12.124,24.173,11.126z M21.151,21.852c-0.432,0-0.674,0.244-0.674,0.824v4.496
		c0,0.582,0.242,0.825,0.674,0.825c0.412,0,0.674-0.243,0.674-0.825v-4.496C21.825,22.096,21.563,21.852,21.151,21.852z"/>
</g>
<g>
</g>
<g>
</g>
<g>
</g>
<g>
</g>
<g>
</g>
<g>
</g>
<g>
</g>
<g>
</g>
<g>
</g>
<g>
</g>
<g>
</g>
<g>
</g>
<g>
</g>
<g>
</g>
<g>
</g>
</svg>
