<?xml version="1.0" encoding="iso-8859-1"?>
<!-- Generator: Adobe Illustrator 18.0.0, SVG Export Plug-In . SVG Version: 6.00 Build 0)  -->
<!DOCTYPE svg PUBLIC "-//W3C//DTD SVG 1.1//EN" "http://www.w3.org/Graphics/SVG/1.1/DTD/svg11.dtd">
<svg version="1.1" id="Capa_1" xmlns="http://www.w3.org/2000/svg" xmlns:xlink="http://www.w3.org/1999/xlink" x="0px" y="0px"
	 viewBox="0 0 284.569 284.569" style="enable-background:new 0 0 284.569 284.569;" xml:space="preserve">
<g>
	<path d="M107.653,151.991c-6.564,0-11.905,5.341-11.905,11.905c0,6.565,5.341,11.906,11.905,11.906
		c6.565,0,11.906-5.341,11.906-11.906C119.559,157.332,114.219,151.991,107.653,151.991z"/>
	<path d="M176.915,199.082c-6.564,0-11.905,5.341-11.905,11.906c0,6.564,5.341,11.905,11.905,11.905
		c6.565,0,11.906-5.341,11.906-11.905C188.821,204.423,183.48,199.082,176.915,199.082z"/>
	<path d="M269.569,100.802h-23.313c4.871,11.335,1.629,24.958-8.673,32.763c-12.07,9.142-29.329,6.828-38.524-5.321l-20.78-27.441
		h-71.99l-20.78,27.441c-9.145,12.079-26.39,14.512-38.524,5.321c-10.303-7.805-13.544-21.429-8.673-32.763H15
		c-8.284,0-15,6.716-15,15c0,8.284,6.716,15,15,15h3.741l26.811,107.5c2.935,13.306,14.727,22.779,28.353,22.779h136.761
		c13.625,0,25.418-9.474,28.352-22.779l26.811-107.5h3.741c8.284,0,15-6.716,15-15C284.569,107.518,277.853,100.802,269.569,100.802
		z M80.748,163.896c0-14.836,12.069-26.905,26.905-26.905c14.836,0,26.906,12.069,26.906,26.905
		c0,14.836-12.07,26.906-26.906,26.906C92.817,190.802,80.748,178.732,80.748,163.896z M112.888,244.954
		c-3.692-1.877-5.163-6.393-3.286-10.085l51.682-101.651c1.841-3.623,6.339-5.189,10.085-3.286c3.673,1.87,5.17,6.379,3.286,10.085
		l-51.682,101.651C121.1,245.35,116.592,246.836,112.888,244.954z M176.915,237.893c-14.836,0-26.905-12.069-26.905-26.905
		c0-14.836,12.069-26.906,26.905-26.906c14.836,0,26.906,12.07,26.906,26.906C203.821,225.824,191.751,237.893,176.915,237.893z"/>
	<path d="M54.53,123.6c6.606,5.003,16.014,3.7,21.014-2.902l55.396-73.153c5.001-6.604,3.702-16.013-2.902-21.014
		c-6.605-5.003-16.015-3.7-21.014,2.902l-55.396,73.153C46.627,109.191,47.926,118.599,54.53,123.6z"/>
	<path d="M209.024,120.698c5.002,6.604,14.41,7.904,21.014,2.902c6.604-5.001,7.903-14.409,2.902-21.014l-55.396-73.153
		c-5.001-6.603-14.408-7.905-21.014-2.902c-6.605,5.001-7.903,14.409-2.902,21.014L209.024,120.698z"/>
</g>
<g>
</g>
<g>
</g>
<g>
</g>
<g>
</g>
<g>
</g>
<g>
</g>
<g>
</g>
<g>
</g>
<g>
</g>
<g>
</g>
<g>
</g>
<g>
</g>
<g>
</g>
<g>
</g>
<g>
</g>
</svg>
