<?xml version="1.0" encoding="iso-8859-1"?>
<!-- Generator: Adobe Illustrator 19.0.0, SVG Export Plug-In . SVG Version: 6.00 Build 0)  -->
<svg version="1.1" id="Layer_1" xmlns="http://www.w3.org/2000/svg" xmlns:xlink="http://www.w3.org/1999/xlink" x="0px" y="0px"
	 viewBox="0 0 512 512" style="enable-background:new 0 0 512 512;" xml:space="preserve">
<g>
	<g>
		<path d="M322.782,233.739c-9.206,0-16.696,7.49-16.696,16.696c0,9.206,7.49,16.696,16.696,16.696
			c9.206,0,16.696-7.49,16.696-16.696C339.478,241.229,331.988,233.739,322.782,233.739z"/>
	</g>
</g>
<g>
	<g>
		<path d="M505.641,323.25c-2.217-6.913-8.642-11.598-15.902-11.598h-50.087V16.696C439.652,7.479,432.173,0,422.956,0H89.043
			c-9.217,0-16.696,7.479-16.696,16.696v294.956H22.261c-7.26,0-13.685,4.685-15.902,11.598c-2.206,6.913,0.294,14.467,6.195,18.685
			l233.739,166.956c2.902,2.076,6.304,3.109,9.707,3.109c3.403,0,6.804-1.033,9.707-3.109l233.739-166.956
			C505.348,337.717,507.848,330.163,505.641,323.25z M139.13,116.87c0-27.619,22.468-50.087,50.087-50.087
			c27.619,0,50.087,22.468,50.087,50.087c0,27.619-22.468,50.087-50.087,50.087C161.598,166.957,139.13,144.489,139.13,116.87z
			 M196.967,266.305c-3.261,3.261-7.533,4.892-11.804,4.892s-8.544-1.631-11.804-4.892c-6.521-6.521-6.521-17.087,0-23.609
			l141.661-141.674c6.521-6.521,17.087-6.521,23.609,0c6.521,6.521,6.521,17.087,0,23.609L196.967,266.305z M322.782,300.522
			c-27.619,0-50.087-22.468-50.087-50.087c0-27.619,22.468-50.087,50.087-50.087c27.619,0,50.087,22.468,50.087,50.087
			C372.869,278.054,350.401,300.522,322.782,300.522z"/>
	</g>
</g>
<g>
	<g>
		<path d="M189.217,100.174c-9.206,0-16.696,7.49-16.696,16.696s7.49,16.696,16.696,16.696s16.696-7.49,16.696-16.696
			S198.423,100.174,189.217,100.174z"/>
	</g>
</g>
<g>
</g>
<g>
</g>
<g>
</g>
<g>
</g>
<g>
</g>
<g>
</g>
<g>
</g>
<g>
</g>
<g>
</g>
<g>
</g>
<g>
</g>
<g>
</g>
<g>
</g>
<g>
</g>
<g>
</g>
</svg>
