<?xml version="1.0" encoding="utf-8"?>
<!-- Generator: Adobe Illustrator 16.0.0, SVG Export Plug-In . SVG Version: 6.00 Build 0)  -->
<!DOCTYPE svg PUBLIC "-//W3C//DTD SVG 1.1//EN" "http://www.w3.org/Graphics/SVG/1.1/DTD/svg11.dtd">
<svg version="1.1" id="Capa_1" xmlns="http://www.w3.org/2000/svg" xmlns:xlink="http://www.w3.org/1999/xlink" x="0px" y="0px"
	 width="90px" height="90px" viewBox="-15.268 -15.268 90 90" enable-background="new -15.268 -15.268 90 90" xml:space="preserve">
<linearGradient id="SVGID_1_" gradientUnits="userSpaceOnUse" x1="-10.2676" y1="29.7324" x2="69.7324" y2="29.7324">
	<stop  offset="0" style="stop-color:#FFFFFF;stop-opacity:0"/>
	<stop  offset="1" style="stop-color:#FFFFFF;stop-opacity:0"/>
</linearGradient>
<circle fill="url(#SVGID_1_)" stroke="#000000" stroke-width="7" stroke-miterlimit="10" cx="29.732" cy="29.732" r="40"/>
<g>
	<g>
		<path d="M58.861,33.886L45.045,20.068v-9.111c0-1.137-0.921-2.056-2.057-2.056c-1.137,0-2.057,0.919-2.057,2.056v5.001
			L31.186,6.21c-0.802-0.803-2.104-0.803-2.905,0L0.603,33.886c-0.803,0.804-0.803,2.104,0,2.907c0.802,0.803,2.104,0.803,2.907,0
			L29.731,10.57l26.224,26.223c0.4,0.398,0.93,0.604,1.455,0.604c0.521,0,1.051-0.201,1.451-0.604
			C59.665,35.988,59.665,34.689,58.861,33.886z"/>
		<path d="M52.979,36.245L31.186,14.449c-0.386-0.385-0.908-0.602-1.454-0.602c-0.545,0-1.068,0.217-1.453,0.602L6.484,36.245
			c-0.291,0.288-0.487,0.659-0.565,1.062c-0.061,0.314-0.091,0.633-0.091,0.942v10.638c0,2.739,2.229,4.971,4.969,4.971h10.638
			c1.379,0,2.707-0.582,3.646-1.599c0.854-0.923,1.323-2.12,1.323-3.373v-7.812c0-1.896,1.453-3.48,3.33-3.658
			c1.878,0.178,3.331,1.762,3.331,3.658v7.812c0,1.253,0.473,2.45,1.324,3.373c0.938,1.017,2.27,1.599,3.646,1.599h10.638
			c2.74,0,4.972-2.229,4.972-4.972V38.252c0-0.313-0.031-0.63-0.093-0.941C53.471,36.904,53.271,36.533,52.979,36.245z"/>
	</g>
</g>
</svg>
