<?xml version="1.0" encoding="utf-8"?>
<!-- Generator: Adobe Illustrator 16.0.0, SVG Export Plug-In . SVG Version: 6.00 Build 0)  -->
<!DOCTYPE svg PUBLIC "-//W3C//DTD SVG 1.1//EN" "http://www.w3.org/Graphics/SVG/1.1/DTD/svg11.dtd">
<svg version="1.1" id="Layer_1" xmlns="http://www.w3.org/2000/svg" xmlns:xlink="http://www.w3.org/1999/xlink" x="0px" y="0px"
	 width="500px" height="500px" viewBox="70 -10 500 500" enable-background="new 70 -10 500 500" xml:space="preserve">
<g>
	<path fill="#AF6964" d="M484.541,118.882H155.458V91.631c0-1.672,1.364-3.028,3.047-3.028h322.99c1.684,0,3.047,1.356,3.047,3.028
		V118.882z"/>
	<polygon fill="#AF6964" points="472.353,167.329 472.353,294.502 167.646,294.502 167.646,167.329 155.458,167.329 
		155.458,379.285 484.541,379.285 484.541,167.329 	"/>
</g>
<path fill="#A05755" d="M487.588,300.559H152.411c-1.684,0-3.048-1.355-3.048-3.028v-6.056c0-1.673,1.364-3.028,3.048-3.028h335.177
	c1.684,0,3.047,1.355,3.047,3.028v6.056C490.635,299.203,489.271,300.559,487.588,300.559z"/>
<g>
	<path fill="#D2555A" d="M287.866,191.553L287.866,191.553c-8.873,0-16.066-7.148-16.066-15.965v-14.314h32.132v14.314
		C303.933,184.404,296.739,191.553,287.866,191.553z"/>
	<path fill="#D2555A" d="M352.133,191.553L352.133,191.553c-8.872,0-16.066-7.148-16.066-15.965v-14.314h32.133v14.314
		C368.199,184.404,361.005,191.553,352.133,191.553z"/>
	<path fill="#D2555A" d="M223.602,191.553L223.602,191.553c-8.874,0-16.066-7.148-16.066-15.965v-14.314h32.133v14.314
		C239.667,184.404,232.475,191.553,223.602,191.553z"/>
	<path fill="#D2555A" d="M159.336,191.553L159.336,191.553c-8.873,0-16.067-7.148-16.067-15.965v-14.314h32.133v14.314
		C175.402,184.404,168.209,191.553,159.336,191.553z"/>
	<path fill="#D2555A" d="M416.396,191.553L416.396,191.553c-8.872,0-16.065-7.148-16.065-15.965v-14.314h32.134v14.314
		C432.465,184.404,425.271,191.553,416.396,191.553z"/>
</g>
<g>
	<path fill="#C7CFE2" d="M255.734,191.553L255.734,191.553c-8.873,0-16.067-7.148-16.067-15.965v-14.314H271.8v14.314
		C271.8,184.404,264.608,191.553,255.734,191.553z"/>
	<path fill="#C7CFE2" d="M384.265,191.553L384.265,191.553c-8.874,0-16.065-7.148-16.065-15.965v-14.314h32.132v14.314
		C400.331,184.404,393.139,191.553,384.265,191.553z"/>
</g>
<path fill="#D2555A" d="M480.663,191.553L480.663,191.553c-8.872,0-16.066-7.148-16.066-15.965v-14.314h32.134v14.314
	C496.73,184.404,489.536,191.553,480.663,191.553z"/>
<g>
	<path fill="#C7CFE2" d="M448.53,191.553L448.53,191.553c-8.873,0-16.065-7.148-16.065-15.965v-14.314h32.132v14.314
		C464.597,184.404,457.402,191.553,448.53,191.553z"/>
	<path fill="#C7CFE2" d="M191.469,191.553L191.469,191.553c-8.874,0-16.067-7.148-16.067-15.965v-14.314h32.133v14.314
		C207.535,184.404,200.341,191.553,191.469,191.553z"/>
	<path fill="#C7CFE2" d="M319.999,191.553L319.999,191.553c-8.872,0-16.066-7.148-16.066-15.965v-14.314h32.134v14.314
		C336.066,184.404,328.873,191.553,319.999,191.553z"/>
</g>
<g>
	<polygon fill="#FF6464" points="303.933,161.273 271.8,161.273 275.125,112.827 305.041,112.827 	"/>
	<polygon fill="#FF6464" points="368.199,161.273 336.066,161.273 334.957,112.827 364.874,112.827 	"/>
	<polygon fill="#FF6464" points="239.667,161.273 207.535,161.273 215.291,112.827 245.208,112.827 	"/>
	<polygon fill="#FF6464" points="175.402,161.273 143.269,161.273 155.458,112.827 185.375,112.827 	"/>
	<polygon fill="#FF6464" points="432.465,161.273 400.331,161.273 394.792,112.827 424.707,112.827 	"/>
</g>
<g>
	<polygon fill="#EFF2FA" points="271.8,161.273 239.667,161.273 245.208,112.827 275.125,112.827 	"/>
	<polygon fill="#EFF2FA" points="400.331,161.273 368.199,161.273 364.874,112.827 394.792,112.827 	"/>
</g>
<polygon fill="#FF6464" points="496.73,161.273 464.597,161.273 454.625,112.827 484.541,112.827 "/>
<g>
	<polygon fill="#EFF2FA" points="464.597,161.273 432.465,161.273 424.707,112.827 454.625,112.827 	"/>
	<polygon fill="#EFF2FA" points="207.535,161.273 175.402,161.273 185.375,112.827 215.291,112.827 	"/>
	<polygon fill="#EFF2FA" points="336.066,161.273 303.933,161.273 305.041,112.827 334.957,112.827 	"/>
</g>
<path fill="#8F96AC" d="M493.683,391.396H146.316c-1.683,0-3.047-1.355-3.047-3.027v-6.057c0-1.673,1.365-3.027,3.047-3.027h347.366
	c1.684,0,3.048,1.354,3.048,3.027v6.057C496.73,390.04,495.366,391.396,493.683,391.396z"/>
<linearGradient id="SVGID_1_" gradientUnits="userSpaceOnUse" x1="143.2686" y1="391.3965" x2="143.2686" y2="391.3965">
	<stop  offset="0" style="stop-color:#FFFFFF;stop-opacity:0"/>
	<stop  offset="1" style="stop-color:#B3B3B3"/>
</linearGradient>
<path fill="url(#SVGID_1_)" d="M143.269,391.396"/>
<linearGradient id="SVGID_2_" gradientUnits="userSpaceOnUse" x1="392.1113" y1="491.3545" x2="309.0594" y2="313.2491">
	<stop  offset="0" style="stop-color:#FFFFFF;stop-opacity:0"/>
	<stop  offset="1" style="stop-color:#B3B3B3"/>
</linearGradient>
<path fill="url(#SVGID_2_)" d="M143.27,390.559c0,0,47.883,50.524,100.73,84.441c33.5,21.5,89.278,10.56,113,12
	c7.863,0.478,101.5-22,133.635-42.496c31.9-20.347,60.865-42.663,53.865-59.163S483.77,300,483.77,300l0.041,79H496v11.955
	L143.27,390.559z"/>
</svg>
