<?xml version="1.0" encoding="iso-8859-1"?>
<!-- Generator: Adobe Illustrator 19.0.0, SVG Export Plug-In . SVG Version: 6.00 Build 0)  -->
<svg version="1.1" id="Layer_1" xmlns="http://www.w3.org/2000/svg" xmlns:xlink="http://www.w3.org/1999/xlink" x="0px" y="0px"
	 viewBox="0 0 512 512" style="enable-background:new 0 0 512 512;" xml:space="preserve">
<g>
	<path style="fill:#AF6964;" d="M494.345,79.448H17.655V39.724c0-2.438,1.976-4.414,4.414-4.414h467.862
		c2.438,0,4.414,1.976,4.414,4.414V79.448z"/>
	<polygon style="fill:#AF6964;" points="476.69,150.069 476.69,335.448 35.31,335.448 35.31,150.069 17.655,150.069 17.655,459.034 
		494.345,459.034 494.345,150.069 	"/>
</g>
<path style="fill:#A05755;" d="M498.759,344.276H13.241c-2.438,0-4.414-1.976-4.414-4.414v-8.828c0-2.438,1.976-4.414,4.414-4.414
	h485.517c2.438,0,4.414,1.976,4.414,4.414v8.828C503.172,342.3,501.196,344.276,498.759,344.276z"/>
<g>
	<path style="fill:#D2555A;" d="M209.454,185.379L209.454,185.379c-12.853,0-23.273-10.42-23.273-23.273v-20.865h46.546v20.865
		C232.727,174.959,222.307,185.379,209.454,185.379z"/>
	<path style="fill:#D2555A;" d="M302.546,185.379L302.546,185.379c-12.853,0-23.273-10.42-23.273-23.273v-20.865h46.546v20.865
		C325.818,174.959,315.399,185.379,302.546,185.379z"/>
	<path style="fill:#D2555A;" d="M116.364,185.379L116.364,185.379c-12.853,0-23.273-10.42-23.273-23.273v-20.865h46.546v20.865
		C139.636,174.959,129.217,185.379,116.364,185.379z"/>
	<path style="fill:#D2555A;" d="M23.273,185.379L23.273,185.379C10.42,185.379,0,174.959,0,162.106v-20.865h46.546v20.865
		C46.546,174.959,36.126,185.379,23.273,185.379z"/>
	<path style="fill:#D2555A;" d="M395.636,185.379L395.636,185.379c-12.853,0-23.273-10.42-23.273-23.273v-20.865h46.546v20.865
		C418.909,174.959,408.49,185.379,395.636,185.379z"/>
</g>
<g>
	<path style="fill:#C7CFE2;" d="M162.909,185.379L162.909,185.379c-12.853,0-23.273-10.42-23.273-23.273v-20.865h46.546v20.865
		C186.182,174.959,175.763,185.379,162.909,185.379z"/>
	<path style="fill:#C7CFE2;" d="M349.091,185.379L349.091,185.379c-12.853,0-23.273-10.42-23.273-23.273v-20.865h46.546v20.865
		C372.364,174.959,361.944,185.379,349.091,185.379z"/>
</g>
<path style="fill:#D2555A;" d="M488.727,185.379L488.727,185.379c-12.853,0-23.273-10.42-23.273-23.273v-20.865H512v20.865
	C512,174.959,501.58,185.379,488.727,185.379z"/>
<g>
	<path style="fill:#C7CFE2;" d="M442.182,185.379L442.182,185.379c-12.853,0-23.273-10.42-23.273-23.273v-20.865h46.546v20.865
		C465.454,174.959,455.034,185.379,442.182,185.379z"/>
	<path style="fill:#C7CFE2;" d="M69.818,185.379L69.818,185.379c-12.853,0-23.273-10.42-23.273-23.273v-20.865h46.546v20.865
		C93.091,174.959,82.671,185.379,69.818,185.379z"/>
	<path style="fill:#C7CFE2;" d="M256,185.379L256,185.379c-12.853,0-23.273-10.42-23.273-23.273v-20.865h46.546v20.865
		C279.273,174.959,268.853,185.379,256,185.379z"/>
</g>
<g>
	<polygon style="fill:#FF6464;" points="232.727,141.241 186.182,141.241 190.997,70.621 234.333,70.621 	"/>
	<polygon style="fill:#FF6464;" points="325.818,141.241 279.273,141.241 277.667,70.621 321.003,70.621 	"/>
	<polygon style="fill:#FF6464;" points="139.636,141.241 93.091,141.241 104.326,70.621 147.661,70.621 	"/>
	<polygon style="fill:#FF6464;" points="46.546,141.241 0,141.241 17.655,70.621 60.991,70.621 	"/>
	<polygon style="fill:#FF6464;" points="418.909,141.241 372.364,141.241 364.339,70.621 407.674,70.621 	"/>
</g>
<g>
	<polygon style="fill:#EFF2FA;" points="186.182,141.241 139.636,141.241 147.661,70.621 190.997,70.621 	"/>
	<polygon style="fill:#EFF2FA;" points="372.364,141.241 325.818,141.241 321.003,70.621 364.339,70.621 	"/>
</g>
<polygon style="fill:#FF6464;" points="512,141.241 465.454,141.241 451.009,70.621 494.345,70.621 "/>
<g>
	<polygon style="fill:#EFF2FA;" points="465.454,141.241 418.909,141.241 407.674,70.621 451.009,70.621 	"/>
	<polygon style="fill:#EFF2FA;" points="93.091,141.241 46.546,141.241 60.991,70.621 104.326,70.621 	"/>
	<polygon style="fill:#EFF2FA;" points="279.273,141.241 232.727,141.241 234.333,70.621 277.667,70.621 	"/>
</g>
<path style="fill:#8F96AC;" d="M507.586,476.69H4.414c-2.438,0-4.414-1.976-4.414-4.414v-8.828c0-2.438,1.976-4.414,4.414-4.414
	h503.172c2.438,0,4.414,1.976,4.414,4.414v8.828C512,474.713,510.024,476.69,507.586,476.69z"/>
<g>
</g>
<g>
</g>
<g>
</g>
<g>
</g>
<g>
</g>
<g>
</g>
<g>
</g>
<g>
</g>
<g>
</g>
<g>
</g>
<g>
</g>
<g>
</g>
<g>
</g>
<g>
</g>
<g>
</g>
</svg>
