<?xml version="1.0" encoding="iso-8859-1"?>
<!-- Generator: Adobe Illustrator 19.0.0, SVG Export Plug-In . SVG Version: 6.00 Build 0)  -->
<svg version="1.1" id="Layer_1" xmlns="http://www.w3.org/2000/svg" xmlns:xlink="http://www.w3.org/1999/xlink" x="0px" y="0px"
	 viewBox="0 0 512 512" style="enable-background:new 0 0 512 512;" xml:space="preserve">
<path style="fill:#7DDCD4;" d="M502.387,186.281C472.028,78.781,373.216,0,256,0C114.615,0,0,114.616,0,256
	c0,117.217,78.781,216.028,186.281,246.387L502.387,186.281z"/>
<path style="fill:#02C8A7;" d="M512,256c0-24.169-3.354-47.554-9.613-69.719l-88.333-88.333L97.948,414.053l88.333,88.333
	C208.446,508.646,231.831,512,256,512C397.385,512,512,397.384,512,256z"/>
<polygon style="fill:#D8F4F2;" points="414.052,97.948 414.052,414.052 256,414.052 183.841,256 256,97.948 "/>
<rect x="97.948" y="97.948" style="fill:#FFFFFF;" width="158.052" height="316.104"/>
<polygon style="fill:#0E7563;" points="391.791,120.209 391.791,391.791 256,391.791 194.005,256 256,120.209 "/>
<rect x="120.209" y="120.209" style="fill:#02967D;" width="135.791" height="271.583"/>
<path style="fill:#D8F4F2;" d="M258.226,153.6H256l-20.035,22.261L256,198.122h2.226c12.275,0,22.261,9.986,22.261,22.261
	s-9.986,22.261-22.261,22.261H256l-20.035,22.261L256,287.165h2.226c36.824,0,66.783-29.959,66.783-66.783
	S295.05,153.6,258.226,153.6z"/>
<polygon style="fill:#FFFFFF;" points="231.513,242.643 231.513,198.122 256,198.122 256,153.6 186.991,153.6 186.991,358.4 
	231.513,358.4 231.513,287.165 256,287.165 256,242.643 "/>
<g>
</g>
<g>
</g>
<g>
</g>
<g>
</g>
<g>
</g>
<g>
</g>
<g>
</g>
<g>
</g>
<g>
</g>
<g>
</g>
<g>
</g>
<g>
</g>
<g>
</g>
<g>
</g>
<g>
</g>
</svg>
