<?xml version="1.0" encoding="utf-8"?>
<!-- Generator: Adobe Illustrator 16.0.0, SVG Export Plug-In . SVG Version: 6.00 Build 0)  -->
<!DOCTYPE svg PUBLIC "-//W3C//DTD SVG 1.1//EN" "http://www.w3.org/Graphics/SVG/1.1/DTD/svg11.dtd">
<svg version="1.1" id="Layer_1" xmlns="http://www.w3.org/2000/svg" xmlns:xlink="http://www.w3.org/1999/xlink" x="0px" y="0px"
	 width="480px" height="500px" viewBox="80 -10 480 500" enable-background="new 80 -10 480 500" xml:space="preserve">
<path fill="#FFFFFF" d="M404.95,99.644c0,46.923-38.027,84.96-84.95,84.96s-84.951-38.037-84.951-84.96
	c0-46.913,38.028-84.951,84.951-84.951S404.95,52.731,404.95,99.644z"/>
<path fill="#C8C6CD" d="M404.95,99.644c0,46.923-38.027,84.96-84.95,84.96V14.693C366.923,14.693,404.95,52.731,404.95,99.644z"/>
<polygon fill="#535353" points="371.428,450.612 371.428,480 268.572,480 268.572,450.612 305.307,450.612 305.307,191.021 
	334.693,191.021 334.693,450.612 "/>
<polygon fill="#2B292C" points="371.428,450.612 371.428,480 320,480 320,191.021 334.693,191.021 334.693,450.612 "/>
<path fill="#E70020" d="M320,0c-54.945,0-99.644,44.699-99.644,99.644c0,54.956,44.699,99.653,99.644,99.653
	c54.945,0,99.645-44.699,99.645-99.653C419.645,44.699,374.945,0,320,0z M320,169.911c-38.743,0-70.256-31.523-70.256-70.267
	c0-38.733,31.513-70.256,70.256-70.256s70.256,31.523,70.256,70.256C390.256,138.387,358.743,169.911,320,169.911z"/>
<path fill="#990013" d="M419.645,99.644c0,54.956-44.699,99.653-99.645,99.653V169.91c38.743,0,70.256-31.523,70.256-70.267
	c0-38.733-31.513-70.256-70.256-70.256V0C374.945,0,419.645,44.699,419.645,99.644z"/>
<polygon fill="#3A3938" stroke="#3A3938" stroke-width="5" stroke-miterlimit="10" points="297.25,62.598 342.75,62.598 
	342.75,73.637 305.116,73.662 304.768,95.467 342.75,95.467 342.75,102.498 305.163,102.498 305.163,123.512 342.75,123.512 
	342.75,136.699 297.25,136.699 "/>
</svg>
