<?xml version="1.0" encoding="iso-8859-1"?>
<!-- Generator: Adobe Illustrator 19.0.0, SVG Export Plug-In . SVG Version: 6.00 Build 0)  -->
<svg version="1.1" id="Layer_1" xmlns="http://www.w3.org/2000/svg" xmlns:xlink="http://www.w3.org/1999/xlink" x="0px" y="0px"
	 viewBox="0 0 512.001 512.001" style="enable-background:new 0 0 512.001 512.001;" xml:space="preserve">
<g>
	<g>
		<path d="M404.431,322.838c-1.794-3.658-5.513-5.977-9.588-5.977h-37.666v-6.506c0-12.324-9.991-22.316-22.316-22.316H177.14
			c-12.324,0-22.315,9.991-22.315,22.316v6.506h-37.667c-4.075,0-7.794,2.319-9.588,5.977s-1.35,8.018,1.144,11.239l131.964,170.41
			c3.67,4.74,9.327,7.514,15.322,7.514s11.651-2.775,15.322-7.514l131.965-170.41C405.781,330.856,406.224,326.496,404.431,322.838z
			"/>
	</g>
</g>
<g>
	<g>
		<path d="M271.709,106.879V59.593c21.052,1.619,27.206,11.984,37.893,11.984c14.251,0,20.081-17.814,20.081-26.559
			c0-22.348-37.894-27.529-57.973-28.178V8.745C271.71,4.21,265.556,0,259.403,0c-7.126,0-12.307,4.21-12.307,8.745v9.068
			c-34.33,4.858-64.775,24.615-64.775,65.747c0,41.456,34.977,55.382,64.775,66.719v52.468c-23.968-4.21-34.98-23.319-48.583-23.319
			c-12.307,0-22.024,16.194-22.024,27.206c0,20.729,31.741,40.809,70.606,42.104v8.096c0,4.535,5.182,8.745,12.307,8.745
			c6.154,0,12.307-4.21,12.307-8.745v-9.393c37.893-6.154,63.803-30.444,63.803-70.605
			C335.513,133.112,301.181,117.889,271.709,106.879z M250.333,99.107c-12.309-5.182-20.729-11.012-20.729-20.404
			c0-7.773,6.154-15.222,20.729-18.138V99.107z M268.471,202.425v-43.401c11.659,5.505,19.757,12.307,19.757,22.996
			C288.228,193.68,279.482,199.834,268.471,202.425z"/>
	</g>
</g>
<g>
</g>
<g>
</g>
<g>
</g>
<g>
</g>
<g>
</g>
<g>
</g>
<g>
</g>
<g>
</g>
<g>
</g>
<g>
</g>
<g>
</g>
<g>
</g>
<g>
</g>
<g>
</g>
<g>
</g>
</svg>
