<?xml version="1.0" encoding="utf-8"?>
<!-- Generator: Adobe Illustrator 16.0.0, SVG Export Plug-In . SVG Version: 6.00 Build 0)  -->
<!DOCTYPE svg PUBLIC "-//W3C//DTD SVG 1.1//EN" "http://www.w3.org/Graphics/SVG/1.1/DTD/svg11.dtd">
<svg version="1.1" id="Capa_1" xmlns="http://www.w3.org/2000/svg" xmlns:xlink="http://www.w3.org/1999/xlink" x="0px" y="0px"
	 width="90px" height="90px" viewBox="275 195 90 90" enable-background="new 275 195 90 90" xml:space="preserve">
<linearGradient id="SVGID_1_" gradientUnits="userSpaceOnUse" x1="354.75" y1="175" x2="437.25" y2="175" gradientTransform="matrix(1 0 0 -1 -76 415)">
	<stop  offset="0" style="stop-color:#FFFFFF;stop-opacity:0"/>
	<stop  offset="1" style="stop-color:#000000;stop-opacity:0"/>
</linearGradient>
<circle fill="url(#SVGID_1_)" stroke="#FFFFFF" stroke-width="7" stroke-miterlimit="10" cx="320" cy="240" r="41.25"/>
<g>
	<path fill="#FFFFFF" d="M297.08,218.169h41.359c3.803,0,6.891,3.087,6.891,6.893v22.975c0,0.719-0.141,1.399-0.343,2.052
		l-4.725-4.208c-1.036-1.051-3.119-1.521-4.775-0.849l-8.483-8.682l16.031-12.496l-25.276,13.63l-25.274-13.63l16.031,12.496
		l-13.258,13.568l16.168-11.545l6.333,4.121l6.336-4.123l10.264,7.331c-1.035,0.841-1.666,2.118-1.666,3.518v2.396
		c-2.606,0.386-5.681,1.298-8.507,3.312H297.08c-3.805,0-6.893-3.088-6.893-6.893v-22.974
		C290.187,221.256,293.275,218.169,297.08,218.169z"/>
	<g>
		<path fill="#FFFFFF" d="M336.14,249.223v5.593c-7.414,0-17.233,3.593-17.233,21.943c3.244-11.707,7.614-12.609,17.233-12.609
			v5.683c0,0.438,0.239,0.833,0.645,1.003c0.137,0.057,0.279,0.084,0.42,0.084c0.282,0,0.561-0.11,0.767-0.32l11.525-10.348
			c0.423-0.423,0.423-1.112,0-1.535l-11.525-10.26c-0.31-0.309-0.78-0.403-1.187-0.235
			C336.379,248.389,336.14,248.78,336.14,249.223z"/>
	</g>
</g>
</svg>
