<?xml version="1.0" encoding="utf-8"?>
<!-- Generator: Adobe Illustrator 16.0.0, SVG Export Plug-In . SVG Version: 6.00 Build 0)  -->
<!DOCTYPE svg PUBLIC "-//W3C//DTD SVG 1.1//EN" "http://www.w3.org/Graphics/SVG/1.1/DTD/svg11.dtd">
<svg version="1.1" id="Capa_1" xmlns="http://www.w3.org/2000/svg" xmlns:xlink="http://www.w3.org/1999/xlink" x="0px" y="0px"
	 width="90px" height="90px" viewBox="275 195 90 90" enable-background="new 275 195 90 90" xml:space="preserve">
<linearGradient id="SVGID_1_" gradientUnits="userSpaceOnUse" x1="280" y1="240" x2="360" y2="240">
	<stop  offset="0" style="stop-color:#FFFFFF;stop-opacity:0"/>
	<stop  offset="1" style="stop-color:#FFFFFF;stop-opacity:0"/>
</linearGradient>
<circle fill="url(#SVGID_1_)" stroke="#FFFFFF" stroke-width="7" stroke-miterlimit="10" cx="320" cy="240" r="40"/>
<g>
	<g id="Icons_38_">
		<path fill="#FFFFFF" stroke="#FFFFFF" stroke-miterlimit="10" d="M348.229,225.85c-0.856-1.233-2.264-1.971-3.768-1.971h-28.408
			c-1.061,0-1.922,0.86-1.922,1.922c0,1.061,0.861,1.922,1.922,1.922h28.408c0.242,0,0.471,0.118,0.61,0.32
			c0.138,0.199,0.171,0.454,0.086,0.681l-5.323,14.331c-0.108,0.289-0.389,0.484-0.697,0.484h-29.853l-4.755-20.291
			c-0.592-2.52-2.811-4.281-5.401-4.281h-5.294c-1.593,0-2.883,1.291-2.883,2.883c0,1.593,1.29,2.883,2.883,2.883h5.122l6.403,27.32
			c0.58,2.472,2.728,4.201,5.251,4.269c-1.483,1.077-2.455,2.811-2.455,4.784c0,3.271,2.651,5.926,5.924,5.926
			c3.271,0,5.924-2.654,5.924-5.926c0-1.966-0.967-3.693-2.438-4.773h11.052c-1.473,1.08-2.44,2.808-2.44,4.773
			c0,3.271,2.652,5.926,5.924,5.926c3.272,0,5.927-2.654,5.927-5.926c0-1.966-0.969-3.693-2.442-4.773h2.688
			c1.594,0,2.884-1.289,2.884-2.881c0-1.593-1.29-2.883-2.884-2.883h-27.34l-0.747-3.187h28.952c1.905,0,3.633-1.199,4.298-2.988
			l5.326-14.333C349.283,228.653,349.085,227.079,348.229,225.85z"/>
	</g>
</g>
</svg>
