<?xml version="1.0" encoding="utf-8"?>
<!-- Generator: Adobe Illustrator 16.0.0, SVG Export Plug-In . SVG Version: 6.00 Build 0)  -->
<!DOCTYPE svg PUBLIC "-//W3C//DTD SVG 1.1//EN" "http://www.w3.org/Graphics/SVG/1.1/DTD/svg11.dtd">
<svg version="1.1" id="Layer_1" xmlns="http://www.w3.org/2000/svg" xmlns:xlink="http://www.w3.org/1999/xlink" x="0px" y="0px"
	 width="90px" height="90px" viewBox="0 0 90 90" enable-background="new 0 0 90 90" xml:space="preserve">
<linearGradient id="SVGID_1_" gradientUnits="userSpaceOnUse" x1="3.75" y1="45" x2="86.25" y2="45">
	<stop  offset="0" style="stop-color:#FFFFFF;stop-opacity:0"/>
	<stop  offset="1" style="stop-color:#000000;stop-opacity:0"/>
</linearGradient>
<circle fill="url(#SVGID_1_)" stroke="#FFFFFF" stroke-width="7" stroke-miterlimit="10" cx="45" cy="45" r="41.25"/>
<g>
	<g>
		<path fill="#FFFFFF" stroke="#FFFFFF" stroke-miterlimit="10" d="M54.502,41.293v-1.686l0.934-0.035
			c-0.432-10.467-9.188-18.664-19.938-18.664c-11.003,0-19.956,8.729-19.956,19.457c0,10.418,8.445,18.924,19.005,19.412v6.533
			c0,1.533,1.278,2.78,2.851,2.78h8.552c1.572,0,2.852-1.247,2.852-2.78V50.558c0-1.531-1.279-2.778-2.852-2.778h-0.428
			c0.607-2.021,0.949-4.193,1.025-6.486H54.502L54.502,41.293z M29.304,50.396c0.517,0.722,1.369,1.195,2.336,1.195
			c1.375,0,2.523-0.952,2.791-2.216c0.038-0.002,0.076-0.004,0.114-0.006v1.19v6.718c-1.523-1.012-4.036-3.085-5.889-6.637
			C28.873,50.557,29.087,50.473,29.304,50.396z M30.69,48.811c0-0.51,0.426-0.926,0.95-0.926c0.525,0,0.951,0.416,0.951,0.926
			c0,0.512-0.426,0.928-0.951,0.928C31.116,49.738,30.69,49.322,30.69,48.811z M31.832,57.606c-3.083-0.622-5.871-2.024-8.163-3.971
			c0.995-0.843,2.086-1.572,3.24-2.185C28.376,54.301,30.245,56.291,31.832,57.606z M34.546,47.516
			c-0.129,0.006-0.259,0.012-0.388,0.02c-0.477-0.889-1.42-1.504-2.519-1.504c-1.497,0-2.717,1.137-2.829,2.569
			c-0.313,0.108-0.625,0.226-0.934,0.353c-0.85-2.106-1.446-4.641-1.547-7.658h8.216V47.516z M26.338,39.439
			c0.093-2.781,0.609-5.341,1.538-7.652c2.101,0.849,4.353,1.324,6.671,1.431v6.222H26.338L26.338,39.439L26.338,39.439z
			 M36.446,23.455c1.527,1.009,4.047,3.08,5.901,6.641c-1.86,0.745-3.853,1.166-5.901,1.27V23.455z M39.141,23.119
			c3.098,0.614,5.893,2.006,8.189,3.948c-1.014,0.862-2.103,1.611-3.265,2.226C42.592,26.434,40.725,24.437,39.141,23.119z
			 M28.815,26.555c0-0.512,0.426-0.928,0.95-0.928c0.525,0,0.95,0.418,0.95,0.928s-0.425,0.926-0.95,0.926
			C29.241,27.48,28.815,27.065,28.815,26.555z M30.89,24.002c-0.346-0.146-0.726-0.228-1.125-0.228c-0.116,0-0.227,0.021-0.34,0.033
			c0.796-0.278,1.61-0.522,2.453-0.69C31.557,23.383,31.227,23.68,30.89,24.002z M26.915,26.555c0,0.641,0.232,1.223,0.607,1.693
			c-0.205,0.346-0.404,0.692-0.59,1.048c-1.156-0.609-2.242-1.354-3.251-2.21c1.306-1.106,2.775-2.031,4.37-2.738
			C27.364,24.854,26.915,25.649,26.915,26.555z M29.12,29.256c0.208,0.047,0.422,0.078,0.646,0.078c1.571,0,2.851-1.247,2.851-2.779
			c0-0.467-0.129-0.9-0.338-1.287c0.846-0.798,1.641-1.398,2.27-1.813v7.91c-2.048-0.104-4.04-0.523-5.9-1.27
			C28.795,29.81,28.957,29.531,29.12,29.256z M36.446,33.219c2.318-0.105,4.57-0.582,6.672-1.43c0.219,0.545,0.42,1.121,0.601,1.726
			c-0.765,0.499-1.271,1.349-1.271,2.312c0,1.301,0.926,2.388,2.166,2.688c0.021,0.306,0.037,0.614,0.049,0.926h-8.217V33.219z
			 M45.298,36.752c-0.524,0-0.95-0.416-0.95-0.928c0-0.511,0.426-0.926,0.95-0.926c0.524,0,0.95,0.416,0.95,0.926
			C46.248,36.336,45.822,36.752,45.298,36.752z M46.504,38.336c0.969-0.446,1.646-1.399,1.646-2.51c0-1.443-1.141-2.621-2.586-2.754
			c-0.214-0.729-0.455-1.423-0.722-2.076c1.38-0.715,2.667-1.607,3.861-2.639c2.799,2.924,4.588,6.782,4.814,11.083h-6.955
			C46.551,39.066,46.529,38.701,46.504,38.336z M22.315,28.377c1.186,1.021,2.467,1.908,3.838,2.619
			c-1.045,2.555-1.619,5.379-1.713,8.444h-6.949C17.719,35.173,19.505,31.311,22.315,28.377z M17.491,41.293h6.94
			c0.103,3.344,0.757,6.141,1.7,8.461c-1.373,0.714-2.66,1.585-3.829,2.59C19.5,49.41,17.719,45.554,17.491,41.293z M46.9,50.561
			v15.751c0,0.513-0.426,0.929-0.951,0.929h-8.552c-0.523,0-0.949-0.416-0.949-0.929v-7.412v-8.339c0-0.512,0.426-0.928,0.949-0.928
			h8.552C46.475,49.633,46.9,50.049,46.9,50.561z M43.534,47.781h-6.137c-0.334,0-0.651,0.064-0.951,0.17v-6.658h8.199
			C44.567,43.608,44.194,45.781,43.534,47.781z"/>
		<rect x="38.347" y="63.533" fill="#FFFFFF" stroke="#FFFFFF" stroke-miterlimit="10" width="6.652" height="1.854"/>
		<path fill="#FFFFFF" stroke="#FFFFFF" stroke-miterlimit="10" d="M69.266,48.707h-6.965c-0.633,0-1.146-0.502-1.146-1.118v-5.833
			c0-2.299-1.918-4.17-4.275-4.17s-4.275,1.871-4.275,4.17v4.775c0,2.11-1.682,3.83-3.805,3.996c0,0.012,0.004,0.021,0.004,0.032
			v15.751h1.137c0.754,0,1.453,0.367,1.873,0.979c0.771,1.127,2.063,1.803,3.453,1.803h14.002c2.863,0,5.191-2.27,5.191-5.063
			V53.768C74.457,50.977,72.129,48.707,69.266,48.707z"/>
	</g>
</g>
</svg>
