<?xml version="1.0" encoding="utf-8"?>
<!-- Generator: Adobe Illustrator 16.0.0, SVG Export Plug-In . SVG Version: 6.00 Build 0)  -->
<!DOCTYPE svg PUBLIC "-//W3C//DTD SVG 1.1//EN" "http://www.w3.org/Graphics/SVG/1.1/DTD/svg11.dtd">
<svg version="1.1" id="Layer_1" xmlns="http://www.w3.org/2000/svg" xmlns:xlink="http://www.w3.org/1999/xlink" x="0px" y="0px"
	 width="90px" height="90px" viewBox="275 195 90 90" enable-background="new 275 195 90 90" xml:space="preserve">
<circle fill="#FFFFFF" stroke="#FFFFFF" stroke-width="7" stroke-miterlimit="10" cx="320" cy="240" r="42.5"/>
<g>
	<g>
		<path fill="#FFFFFF" stroke="#FFFFFF" stroke-miterlimit="10" d="M332.414,239.862v-1.686l0.933-0.036
			c-0.432-10.466-9.188-18.664-19.938-18.664c-11.003,0-19.956,8.729-19.956,19.458c0,10.417,8.445,18.923,19.005,19.412v6.533
			c0,1.533,1.279,2.78,2.85,2.78h8.553c1.572,0,2.852-1.247,2.852-2.78v-15.753c0-1.531-1.279-2.779-2.852-2.779h-0.428
			c0.607-2.021,0.95-4.193,1.025-6.486H332.414L332.414,239.862z M307.216,248.964c0.516,0.722,1.369,1.195,2.336,1.195
			c1.375,0,2.523-0.952,2.791-2.216c0.038-0.001,0.076-0.004,0.114-0.006v1.191v6.717c-1.524-1.011-4.036-3.084-5.888-6.636
			C306.784,249.125,306.999,249.041,307.216,248.964z M308.602,247.379c0-0.51,0.426-0.926,0.95-0.926
			c0.525,0,0.951,0.416,0.951,0.926c0,0.512-0.426,0.928-0.951,0.928C309.028,248.307,308.602,247.891,308.602,247.379z
			 M309.743,256.175c-3.083-0.622-5.871-2.024-8.163-3.971c0.995-0.842,2.086-1.572,3.241-2.184
			C306.288,252.869,308.156,254.859,309.743,256.175z M312.458,246.084c-0.129,0.006-0.259,0.011-0.388,0.02
			c-0.476-0.889-1.419-1.504-2.518-1.504c-1.498,0-2.717,1.136-2.829,2.569c-0.314,0.108-0.625,0.226-0.934,0.352
			c-0.85-2.106-1.446-4.64-1.547-7.658h8.216V246.084z M304.25,238.008c0.093-2.781,0.609-5.341,1.538-7.652
			c2.101,0.848,4.353,1.324,6.671,1.43v6.222H304.25L304.25,238.008L304.25,238.008z M314.358,222.024
			c1.527,1.008,4.046,3.079,5.901,6.64c-1.86,0.745-3.853,1.166-5.901,1.269V222.024z M317.053,221.688
			c3.097,0.614,5.893,2.005,8.189,3.948c-1.014,0.862-2.104,1.611-3.266,2.225C320.504,225.002,318.637,223.005,317.053,221.688z
			 M306.727,225.123c0-0.511,0.425-0.927,0.95-0.927s0.95,0.417,0.95,0.927c0,0.51-0.425,0.926-0.95,0.926
			S306.727,225.634,306.727,225.123z M308.802,222.57c-0.346-0.146-0.726-0.227-1.125-0.227c-0.117,0-0.227,0.021-0.34,0.033
			c0.796-0.279,1.61-0.523,2.453-0.69C309.469,221.951,309.139,222.248,308.802,222.57z M304.826,225.123
			c0,0.64,0.232,1.223,0.607,1.694c-0.205,0.345-0.404,0.692-0.589,1.047c-1.156-0.609-2.242-1.354-3.251-2.21
			c1.306-1.106,2.775-2.031,4.37-2.738C305.276,223.423,304.826,224.218,304.826,225.123z M307.031,227.824
			c0.208,0.047,0.422,0.078,0.646,0.078c1.571,0,2.851-1.247,2.851-2.779c0-0.467-0.13-0.9-0.339-1.287
			c0.846-0.798,1.641-1.399,2.27-1.813v7.911c-2.048-0.104-4.04-0.524-5.9-1.27C306.707,228.378,306.868,228.1,307.031,227.824z
			 M314.358,231.787c2.318-0.106,4.57-0.582,6.671-1.43c0.219,0.546,0.42,1.122,0.601,1.726c-0.765,0.499-1.271,1.348-1.271,2.311
			c0,1.301,0.926,2.388,2.166,2.689c0.021,0.306,0.038,0.614,0.049,0.926h-8.216V231.787z M323.21,235.32
			c-0.524,0-0.95-0.416-0.95-0.927c0-0.511,0.426-0.926,0.95-0.926s0.95,0.416,0.95,0.926
			C324.16,234.904,323.734,235.32,323.21,235.32z M324.416,236.904c0.969-0.446,1.646-1.399,1.646-2.51
			c0-1.443-1.14-2.62-2.585-2.754c-0.215-0.729-0.455-1.422-0.723-2.075c1.381-0.716,2.668-1.608,3.861-2.639
			c2.799,2.924,4.588,6.782,4.815,11.083h-6.956C324.463,237.635,324.441,237.269,324.416,236.904z M300.226,226.945
			c1.186,1.022,2.467,1.909,3.838,2.62c-1.044,2.554-1.618,5.379-1.713,8.444h-6.949
			C295.631,233.741,297.417,229.879,300.226,226.945z M295.402,239.862h6.941c0.103,3.343,0.757,6.14,1.7,8.46
			c-1.373,0.714-2.66,1.585-3.829,2.59C297.412,247.979,295.631,244.122,295.402,239.862z M324.812,249.129v15.751
			c0,0.512-0.425,0.928-0.95,0.928h-8.553c-0.524,0-0.95-0.416-0.95-0.928v-7.412v-8.339c0-0.512,0.426-0.928,0.95-0.928h8.553
			C324.387,248.201,324.812,248.617,324.812,249.129z M321.445,246.349h-6.137c-0.334,0-0.651,0.065-0.95,0.171v-6.658h8.199
			C322.479,242.177,322.106,244.35,321.445,246.349z"/>
		<rect x="316.259" y="262.101" fill="#FFFFFF" stroke="#FFFFFF" stroke-miterlimit="10" width="6.652" height="1.854"/>
		<path fill="#FFFFFF" stroke="#FFFFFF" stroke-miterlimit="10" d="M347.178,247.275h-6.966c-0.632,0-1.146-0.502-1.146-1.118
			v-5.833c0-2.298-1.918-4.169-4.276-4.169c-2.357,0-4.275,1.871-4.275,4.169v4.775c0,2.111-1.682,3.83-3.805,3.996
			c0,0.012,0.004,0.021,0.004,0.033v15.751h1.137c0.754,0,1.454,0.367,1.873,0.979c0.771,1.127,2.063,1.802,3.454,1.802h14.001
			c2.863,0,5.191-2.27,5.191-5.063v-10.261C352.369,249.545,350.041,247.275,347.178,247.275z"/>
	</g>
</g>
</svg>
