<?xml version="1.0" encoding="utf-8"?>
<!-- Generator: Adobe Illustrator 16.0.0, SVG Export Plug-In . SVG Version: 6.00 Build 0)  -->
<!DOCTYPE svg PUBLIC "-//W3C//DTD SVG 1.1//EN" "http://www.w3.org/Graphics/SVG/1.1/DTD/svg11.dtd">
<svg version="1.1" id="Capa_1" xmlns="http://www.w3.org/2000/svg" xmlns:xlink="http://www.w3.org/1999/xlink" x="0px" y="0px"
	 width="90px" height="90px" viewBox="-21.563 -21.563 90 90" enable-background="new -21.563 -21.563 90 90" xml:space="preserve">
<linearGradient id="SVGID_1_" gradientUnits="userSpaceOnUse" x1="-16.5635" y1="23.4365" x2="63.4365" y2="23.4365">
	<stop  offset="0" style="stop-color:#FFFFFF;stop-opacity:0"/>
	<stop  offset="1" style="stop-color:#FFFFFF;stop-opacity:0"/>
</linearGradient>
<circle fill="url(#SVGID_1_)" stroke="#FFFFFF" stroke-width="7" stroke-miterlimit="10" cx="23.437" cy="23.437" r="40"/>
<g>
	<g>
		<path fill="#FFFFFF" d="M0.96,34.819c-0.618,0-0.904,0.714-0.904,1.613c0,0.937,0.315,1.612,0.917,1.612
			c0.592,0,0.878-0.609,0.878-1.612C1.851,35.521,1.607,34.819,0.96,34.819z"/>
		<path fill="#FFFFFF" d="M7.393,38.541c-0.634,0-0.906,0.718-0.906,1.615c-0.013,0.937,0.303,1.611,0.906,1.611
			c0.588,0,0.875-0.604,0.875-1.611C8.269,39.242,8.038,38.541,7.393,38.541z"/>
		<path fill="#FFFFFF" d="M4.161,28.574c-5.346,0-9.675,4.357-9.675,9.731c0,5.373,4.329,9.732,9.675,9.732
			c5.344,0,9.678-4.359,9.678-9.732C13.839,32.932,9.505,28.574,4.161,28.574z M-1.495,36.485c0-1.6,0.973-2.813,2.496-2.813
			c1.536,0,2.398,1.131,2.398,2.663c0,1.876-1.18,2.854-2.467,2.854C-0.424,39.188-1.495,38.17-1.495,36.485z M2.293,42.6
			c-0.085,0.153-0.247,0.25-0.423,0.25c-0.173,0-0.332-0.092-0.418-0.241c-0.087-0.148-0.089-0.334-0.005-0.487l4.57-8.242
			c0.086-0.157,0.25-0.254,0.429-0.254c0.174,0,0.335,0.094,0.423,0.243c0.088,0.152,0.09,0.337,0.005,0.492L2.293,42.6z
			 M7.349,42.914c-1.341,0-2.413-1.021-2.424-2.705c0-1.598,0.972-2.813,2.495-2.813c1.536,0,2.398,1.13,2.398,2.662
			C9.818,41.934,8.641,42.914,7.349,42.914z"/>
		<path fill="#FFFFFF" d="M-3.792,4.003H50.82c0.289,0,0.548-0.18,0.649-0.453c0.104-0.274,0.025-0.582-0.192-0.774l-3.05-2.673
			c-0.921-0.802-2.098-1.268-3.318-1.268H2.054c-1.239,0-2.438,0.48-3.364,1.306l-2.946,2.634C-4.471,2.968-4.547,3.278-4.444,3.55
			C-4.341,3.822-4.082,4.003-3.792,4.003z"/>
		<path fill="#FFFFFF" d="M38.607,14.801l-2.329,1.704c-2.32,1.718-5.44,1.602-7.763-0.115l-2.269-1.646
			c-1.423-1.054-3.339-0.992-4.766,0.056l-2.326,1.689c-2.324,1.718-5.442,1.584-7.762-0.132l-2.271-1.68
			c-1.424-1.054-3.355-1.058-4.781-0.01l-4.184,3.138v9.672c1.301-0.459,2.592-0.716,3.989-0.716c1.2,0,2.369,0.196,3.455,0.521
			h34.243v8.242c0,1.364-1.117,2.484-2.473,2.484H15.632c0.003,0.065,0.005,0.201,0.005,0.307c0,2.181-0.602,4.216-1.648,5.953
			l27.829-0.01c2.782,0,5.033-2.259,5.033-5.057v-21.95l-3.486-2.507C41.943,13.691,40.033,13.751,38.607,14.801z M41.844,24.146
			H5.426v-1.587c0-1.361,1.1-2.466,2.452-2.466h31.492c1.355,0,2.473,1.105,2.473,2.466L41.844,24.146L41.844,24.146z"/>
		<path fill="#FFFFFF" d="M52.078,5.741c-0.257-0.312-0.641-0.494-1.045-0.494H-3.849c-0.422,0-0.822,0.2-1.077,0.538
			c-0.257,0.339-0.34,0.779-0.229,1.189l1.702,6.166c0.22,0.794,0.814,1.428,1.589,1.693c0.774,0.266,1.63,0.129,2.284-0.364
			l2.451-1.844c2.319-1.7,5.43-1.694,7.744,0.015l2.269,1.681c1.428,1.056,3.35,1.055,4.777,0l2.294-1.699
			c2.031-1.501,4.69-1.681,6.875-0.544c0.021,0.01,0.036,0.024,0.056,0.034c0.264,0.139,0.521,0.289,0.769,0.469l2.782,2.007
			c1.366,0.771,3.056,0.685,4.349-0.269l2.294-1.698c2.031-1.504,4.686-1.684,6.876-0.546c0.02,0.011,0.034,0.02,0.054,0.03
			c0.264,0.14,0.522,0.28,0.771,0.458l2.566,1.841c0.687,0.493,1.575,0.6,2.358,0.284c0.786-0.315,1.355-1.01,1.516-1.843
			l1.139-5.977C52.44,6.467,52.337,6.054,52.078,5.741z"/>
	</g>
</g>
</svg>
